<?xml version="1.0" encoding="UTF-8" standalone="no"?>
<!-- Created with Inkscape (http://www.inkscape.org/) -->

<svg
   xmlns:dc="http://purl.org/dc/elements/1.1/"
   xmlns:cc="http://creativecommons.org/ns#"
   xmlns:rdf="http://www.w3.org/1999/02/22-rdf-syntax-ns#"
   xmlns:svg="http://www.w3.org/2000/svg"
   xmlns="http://www.w3.org/2000/svg"
   xmlns:sodipodi="http://sodipodi.sourceforge.net/DTD/sodipodi-0.dtd"
   xmlns:inkscape="http://www.inkscape.org/namespaces/inkscape"
   width="24.321846mm"
   height="36.692139mm"
   viewBox="0 0 86.179769 130.01151"
   id="svg5223"
   version="1.1"
   inkscape:version="0.91 r13725"
   sodipodi:docname="mix-and-match-characters23.svg">
  <defs
     id="defs5225" />
  <sodipodi:namedview
     id="base"
     pagecolor="#ffffff"
     bordercolor="#666666"
     borderopacity="1.0"
     inkscape:pageopacity="0.0"
     inkscape:pageshadow="2"
     inkscape:zoom="2.8"
     inkscape:cx="7.6141506"
     inkscape:cy="56.174076"
     inkscape:document-units="px"
     inkscape:current-layer="layer1"
     showgrid="false"
     fit-margin-top="0"
     fit-margin-left="0"
     fit-margin-right="0"
     fit-margin-bottom="0"
     inkscape:window-width="1855"
     inkscape:window-height="1056"
     inkscape:window-x="1985"
     inkscape:window-y="24"
     inkscape:window-maximized="1" />
  <metadata
     id="metadata5228">
    <rdf:RDF>
      <cc:Work
         rdf:about="">
        <dc:format>image/svg+xml</dc:format>
        <dc:type
           rdf:resource="http://purl.org/dc/dcmitype/StillImage" />
        <dc:title></dc:title>
      </cc:Work>
    </rdf:RDF>
  </metadata>
  <g
     inkscape:label="Layer 1"
     inkscape:groupmode="layer"
     id="layer1"
     transform="translate(-183.60364,-370.51083)">
    <g
       transform="translate(-42.833325,-75.939179)"
       id="g4241">
      <rect
         style="fill:#e4cfa3;fill-rule:evenodd;stroke:#060000;stroke-width:1.5;stroke-linecap:round;stroke-linejoin:round"
         height="10.667"
         x="407.73001"
         y="419"
         width="14.333"
         transform="matrix(0.93370546,0.35804205,-0.35804205,0.93370546,0,0)"
         ry="5.1666999"
         rx="6.3333001"
         id="rect3449-5" />
      <rect
         style="fill:#e4cfa3;fill-rule:evenodd;stroke:#060000;stroke-width:1.5;stroke-linecap:round;stroke-linejoin:round"
         height="10.667"
         x="-78.905998"
         y="613.19"
         width="14.333"
         transform="matrix(-0.92398,0.38245,0.38245,0.92398,0,0)"
         ry="5.1666999"
         rx="6.3333001"
         id="rect3449-0-4" />
      <rect
         style="fill:#ff5034;fill-rule:evenodd;stroke:#000000;stroke-width:1.75080001;stroke-linecap:round;stroke-linejoin:round"
         height="43.929001"
         x="-430.79001"
         y="378.78"
         width="27.375999"
         transform="matrix(-0.93245,-0.36129,-0.36129,0.93245,0,0)"
         ry="19.577"
         rx="6.6848001"
         id="rect3252-4-6-2-2-1-2" />
      <rect
         style="fill:#9cb5cd;fill-rule:evenodd;stroke:#000000;stroke-width:2;stroke-linecap:round;stroke-linejoin:round"
         height="37.056"
         x="239.10001"
         y="535.65997"
         width="60.181"
         transform="matrix(1,-7.4216e-5,0.0014835,1,0,0)"
         ry="10.198"
         rx="29.573"
         id="rect3252-6-7-2-7-1-6-3-1" />
      <path
         style="fill:#ffffff;stroke:#000000;stroke-width:1.26810002;stroke-linecap:round;stroke-linejoin:round"
         inkscape:connector-curvature="0"
         d="m 269.91,569.17 -0.28939,-11.389"
         id="path3928-9-81-8-0-49-3-2" />
      <path
         style="fill:#473535;stroke:#000000;stroke-width:1.68859994"
         inkscape:connector-curvature="0"
         d="m 272.78,573.74 c 0,0 0.22493,-9.026 10.228,-9.5165 13.456,-0.65967 15.202,8.1321 15.202,8.1321 1.1996,2.6217 -25.536,5.0753 -25.43,1.3844 z"
         id="path4010-7-1-8-9-8-8-6" />
      <path
         style="fill:#473535;stroke:#000000;stroke-width:1.68859994"
         inkscape:connector-curvature="0"
         d="m 266.98,573.75 c 0,0 -0.22674,-8.6155 -10.312,-9.0836 -13.567,-0.62968 -15.327,7.7622 -15.327,7.7622 -1.2095,2.5024 25.746,4.8444 25.639,1.3214 z"
         id="path4010-1-9-1-1-1-9-9-3" />
      <rect
         style="fill:#ff5034;fill-rule:evenodd;stroke:#000000;stroke-width:1.75080001;stroke-linecap:round;stroke-linejoin:round"
         height="43.929001"
         x="56.028999"
         y="575.15002"
         width="27.375999"
         transform="matrix(0.92264582,-0.38564841,0.38564841,0.92264582,0,0)"
         ry="19.577"
         rx="6.6848001"
         id="rect3252-71-0-6-4-3" />
      <path
         style="fill:#ff5034;fill-rule:evenodd;stroke:#000000;stroke-width:2.10610008;stroke-linecap:round;stroke-linejoin:round"
         inkscape:connector-curvature="0"
         d="m 269.1,488.33 c -0.11106,0.002 -0.22241,0.007 -0.33325,0.0104 -0.063,-0.002 -0.12603,-0.004 -0.189,-0.005 -0.0971,-0.002 -0.19615,-10e-6 -0.29345,0 l 0,0.0252 c -7.4357,0.42158 -14.324,5.0442 -18.94,10.88 -9.8946,12.426 -13.668,28.791 -14.001,44.496 0.25995,4.0279 -0.4996,8.863 1.139,12.356 5.9541,3.7836 16.453,4.4168 23.611,5.3011 1.8994,0.088 4.9164,0.11242 8.1919,0.13138 l 0,0.0104 c 0.3437,-0.002 0.67072,-0.003 1.0097,-0.005 0.0334,-1.6e-4 0.0661,1.8e-4 0.0995,0 3.2755,-0.019 6.2925,-0.0434 8.1919,-0.13138 7.1573,-0.88424 17.657,-1.5175 23.611,-5.3011 1.6386,-3.4926 0.87906,-8.3278 1.139,-12.356 -0.3331,-15.704 -4.1067,-32.07 -14.001,-44.496 -4.6162,-5.8359 -11.505,-10.459 -18.94,-10.88 l 0,-0.0354 c -0.0973,-1e-5 -0.1963,-0.002 -0.29345,0 z"
         id="path3932-5-3-8-0-8-51-1-3" />
      <rect
         style="fill:#e4cfa3;fill-rule:evenodd;stroke:#000000;stroke-width:2;stroke-linecap:round;stroke-linejoin:bevel"
         x="233.33"
         y="447.45001"
         width="70"
         height="60"
         ry="29"
         rx="33.5"
         id="rect4240-8-9-5" />
      <g
         transform="matrix(0.46681,0,0,-0.46681,255.81,481.81)"
         id="g456-8-2-1-4-8">
        <path
           inkscape:connector-curvature="0"
           d="m 0,0 c 0,-2.958 -2.396,-5.355 -5.355,-5.355 -2.958,0 -5.356,2.397 -5.356,5.355 0,2.957 2.398,5.356 5.356,5.356 C -2.396,5.356 0,2.957 0,0"
           id="path458-3-6-8-8-1" />
      </g>
      <g
         transform="matrix(0.46681,0,0,-0.46681,283.81,481.31)"
         id="g456-1-7-8-0-9">
        <path
           inkscape:connector-curvature="0"
           d="m 0,0 c 0,-2.958 -2.396,-5.355 -5.355,-5.355 -2.958,0 -5.356,2.397 -5.356,5.355 0,2.957 2.398,5.356 5.356,5.356 C -2.396,5.356 0,2.957 0,0"
           id="path458-9-9-9-1-08" />
      </g>
      <path
         style="fill:#ffffff;stroke:#000000;stroke-width:0.83653998;stroke-linecap:round;stroke-linejoin:round"
         inkscape:connector-curvature="0"
         d="m 251.59,485.36 3.3002,0"
         id="path3831-2-0-3-22-6-5-2" />
      <path
         style="fill:#ffffff;stroke:#000000;stroke-width:0.94016999;stroke-linecap:round;stroke-linejoin:round"
         inkscape:connector-curvature="0"
         d="m 248.74,480.83 6.325,-2.2337"
         id="path3831-2-0-3-22-6-5-2-5" />
      <path
         style="fill:#ffffff;stroke:#000000;stroke-width:0.83653998;stroke-linecap:round;stroke-linejoin:round"
         inkscape:connector-curvature="0"
         d="m 283.2,484.77 -3.3002,0"
         id="path3831-2-0-3-22-6-5-2-1" />
      <path
         style="fill:#ffffff;stroke:#000000;stroke-width:0.95163;stroke-linecap:round;stroke-linejoin:round"
         inkscape:connector-curvature="0"
         d="m 286.24,480.23 -6.5135,-2.2222"
         id="path3831-2-0-3-22-6-5-2-5-3" />
      <path
         style="fill:#ffffff;stroke:#000000;stroke-width:0.67273998;stroke-linecap:round;stroke-linejoin:round"
         inkscape:connector-curvature="0"
         d="m 265.35,492.76 7.7027,0.001"
         id="path3831-2-0-3-22-6-5-2-9-7" />
      <path
         style="fill:#4a2f2b;stroke:#000000;stroke-width:13.43500042;stroke-linecap:round;stroke-linejoin:round"
         inkscape:connector-curvature="0"
         transform="matrix(0.10386,0,0,0.10455,271.18,396.12)"
         d="m -213.36,635.21 c -16.012,-9.545 -20.184,-31.021 -10.797,-46.673 11.003,-18.346 35.656,-23.109 53.602,-12.284 20.937,12.63 26.356,40.817 13.926,61.312 -14.439,23.808 -46.546,29.95 -69.866,15.735 -26.978,-16.445 -33.917,-52.887 -17.722,-79.327 18.663,-30.469 59.886,-38.284 89.764,-19.899 34.305,21.109 43.08,67.591 22.28,101.25 -3.987,6.4516 -8.9211,12.309 -14.585,17.352"
         id="path3920-6-93-3-4-1-7-0-2-5-6" />
      <path
         style="fill:#4a2f2b;stroke:#000000;stroke-width:13.43500042;stroke-linecap:round;stroke-linejoin:round"
         inkscape:connector-curvature="0"
         transform="matrix(-0.10386,0,0,0.10455,245.27,392.58)"
         d="m -213.36,635.21 c -16.012,-9.545 -20.184,-31.021 -10.797,-46.673 11.003,-18.346 35.656,-23.109 53.602,-12.284 20.937,12.63 26.356,40.817 13.926,61.312 -14.439,23.808 -46.546,29.95 -69.866,15.735 -26.978,-16.445 -33.917,-52.887 -17.722,-79.327 18.663,-30.469 59.886,-38.284 89.764,-19.899 34.305,21.109 43.08,67.591 22.28,101.25 -3.987,6.4516 -8.9211,12.309 -14.585,17.352"
         id="path3920-7-7-473-9-4-9-2-9-0-4-7" />
      <path
         style="fill:#4a2f2b;stroke:#000000;stroke-width:17.17399979;stroke-linecap:round;stroke-linejoin:round"
         inkscape:connector-curvature="0"
         transform="matrix(-0.087318,0,0,0.076105,279.04,421.74)"
         d="m -213.36,635.21 c -16.012,-9.545 -20.184,-31.021 -10.797,-46.673 11.003,-18.346 35.656,-23.109 53.602,-12.284 20.937,12.63 26.356,40.817 13.926,61.312 -14.439,23.808 -46.546,29.95 -69.866,15.735 -26.978,-16.445 -33.917,-52.887 -17.722,-79.327 18.663,-30.469 59.886,-38.284 89.764,-19.899 34.305,21.109 43.08,67.591 22.28,101.25 -3.987,6.4516 -8.9211,12.309 -14.585,17.352"
         id="path3920-7-6-4-7-8-6-8-7-2-3-4-6" />
      <path
         style="fill:#4a2f2b;stroke:#000000;stroke-width:17.17399979;stroke-linecap:round;stroke-linejoin:round"
         inkscape:connector-curvature="0"
         transform="matrix(0.087318,0,0,0.076105,259.87,418.91)"
         d="m -213.36,635.21 c -16.012,-9.545 -20.184,-31.021 -10.797,-46.673 11.003,-18.346 35.656,-23.109 53.602,-12.284 20.937,12.63 26.356,40.817 13.926,61.312 -14.439,23.808 -46.546,29.95 -69.866,15.735 -26.978,-16.445 -33.917,-52.887 -17.722,-79.327 18.663,-30.469 59.886,-38.284 89.764,-19.899 34.305,21.109 43.08,67.591 22.28,101.25 -3.987,6.4516 -8.9211,12.309 -14.585,17.352"
         id="path3920-7-6-47-3-3-9-9-4-1-4-3-7" />
      <path
         style="fill:#4a2f2b;stroke:#000000;stroke-width:13.43500042;stroke-linecap:round;stroke-linejoin:round"
         inkscape:connector-curvature="0"
         transform="matrix(0.10386,0,0,0.10455,297.39,393.08)"
         d="m -213.36,635.21 c -16.012,-9.545 -20.184,-31.021 -10.797,-46.673 11.003,-18.346 35.656,-23.109 53.602,-12.284 20.937,12.63 26.356,40.817 13.926,61.312 -14.439,23.808 -46.546,29.95 -69.866,15.735 -26.978,-16.445 -33.917,-52.887 -17.722,-79.327 18.663,-30.469 59.886,-38.284 89.764,-19.899 34.305,21.109 43.08,67.591 22.28,101.25 -3.987,6.4516 -8.9211,12.309 -14.585,17.352"
         id="path3920-7-7-5-27-8-9-3-5-2-3-9-5" />
      <path
         style="fill:#4a2f2b;stroke:#000000;stroke-width:13.43500042;stroke-linecap:round;stroke-linejoin:round"
         inkscape:connector-curvature="0"
         transform="matrix(0.10386,0,0,0.10455,307.77,398.16)"
         d="m -213.36,635.21 c -16.012,-9.545 -20.184,-31.021 -10.797,-46.673 11.003,-18.346 35.656,-23.109 53.602,-12.284 20.937,12.63 26.356,40.817 13.926,61.312 -14.439,23.808 -46.546,29.95 -69.866,15.735 -26.978,-16.445 -33.917,-52.887 -17.722,-79.327 18.663,-30.469 59.886,-38.284 89.764,-19.899 34.305,21.109 43.08,67.591 22.28,101.25 -3.987,6.4516 -8.9211,12.309 -14.585,17.352"
         id="path3920-7-7-50-9-4-5-7-3-5-9-1-0" />
      <path
         style="fill:#624808;fill-rule:evenodd;stroke:#87470a;stroke-width:0.2;stroke-linecap:round;stroke-linejoin:round"
         inkscape:connector-curvature="0"
         d="m 256.56,454.2 c -1.3506,-1.1443 -3.415,-1.9425 -5.0994,-1.9718 l -0.8,-0.0139 1.1,-0.50117 c 3.5369,-1.6114 9.8388,-3.1539 12.464,-3.0508 0.45038,0.0177 0.33586,0.0688 -0.39309,0.17555 -2.5214,0.36916 -4.8,2.1279 -5.9369,4.5826 l -0.63556,1.3721 -0.69944,-0.5926 z"
         id="path4178" />
      <path
         style="fill:#624808;fill-rule:evenodd;stroke:#87470a;stroke-width:0.2;stroke-linecap:round;stroke-linejoin:round"
         inkscape:connector-curvature="0"
         d="m 270.9,451.7 c -1.025,-1.4714 -3.3477,-2.8223 -4.9386,-2.8721 l -0.7,-0.0219 0.6,-0.19501 c 0.73247,-0.23808 6.884,-0.0314 9.3,0.31247 l 1.7,0.24195 -0.89888,0.25836 c -1.4438,0.41497 -2.4314,0.98973 -3.5172,2.0468 l -1.0161,0.9892 -0.52919,-0.75968 z"
         id="path4180" />
      <path
         style="fill:#624808;fill-rule:evenodd;stroke:#87470a;stroke-width:0.2;stroke-linecap:round;stroke-linejoin:round"
         inkscape:connector-curvature="0"
         d="m 284.7,453.77 c -0.27658,-0.60415 -0.88241,-1.5102 -1.3463,-2.0134 -0.46387,-0.50323 -0.73289,-0.91497 -0.59782,-0.91497 0.37965,0 4.9836,2.2545 6.1054,2.9898 l 1,0.65543 -0.92779,-0.11574 c -0.8781,-0.10954 -2.683,0.0857 -3.4014,0.36801 -0.25362,0.0996 -0.44464,-0.12282 -0.83208,-0.9691 l 0,0 z"
         id="path4182" />
      <path
         style="fill:#624808;fill-rule:evenodd;stroke:#87470a;stroke-width:0.2;stroke-linecap:round;stroke-linejoin:round"
         inkscape:connector-curvature="0"
         d="m 296.93,462.58 c -0.91519,-0.19897 -0.93417,-0.21899 -1.0644,-1.1225 -0.0729,-0.50593 -0.18378,-1.1449 -0.2464,-1.4199 l -0.11385,-0.5 0.51494,0.4724 c 0.60612,0.55605 2.241,2.8401 2.0042,2.8001 -0.0895,-0.0151 -0.58208,-0.1187 -1.0946,-0.23012 z"
         id="path4184" />
      <path
         style="fill:#624808;fill-rule:evenodd;stroke:#87470a;stroke-width:0.2;stroke-linecap:round;stroke-linejoin:round"
         inkscape:connector-curvature="0"
         d="m 240.76,459.85 c 0,-0.20644 4.2223,-4.2515 4.3277,-4.1461 0.0424,0.0424 -0.10822,0.49612 -0.33475,1.0082 -0.22653,0.51211 -0.46516,1.381 -0.53028,1.9309 l -0.11842,0.9998 -1.0235,0 c -0.5629,0 -1.3154,0.0837 -1.6721,0.18604 -0.35677,0.10232 -0.64868,0.11182 -0.64868,0.0211 z"
         id="path4188" />
      <path
         style="fill:none;stroke:#000000;stroke-width:2.58940005;stroke-linecap:round;stroke-linejoin:round"
         inkscape:connector-curvature="0"
         transform="matrix(-0.17916,0.19737,0.26344,0.32426,232.73,293.44)"
         d="m 455.8,458.76 a 4.8,4.8 0 0 1 -7.68,3.84"
         id="path4197" />
      <path
         style="fill:none;stroke:#000000;stroke-width:2.58940005;stroke-linecap:round;stroke-linejoin:round"
         inkscape:connector-curvature="0"
         transform="matrix(0.19931,0.17701,-0.22712,0.35066,280.09,290.95)"
         d="m 455.8,458.76 a 4.8,4.8 0 0 1 -7.68,3.84"
         id="path4197-5" />
      <path
         style="fill:#e7d687;fill-rule:evenodd;stroke:#5e3b08;stroke-width:1.65470004;stroke-linejoin:round"
         inkscape:connector-curvature="0"
         transform="matrix(0.59867,0,0,0.54594,23.885,292.23)"
         d="m 429.2,463.76 c -1.2135,1.123 -11.091,-6.3135 -12.586,-5.607 -1.4736,0.69656 -1.7647,12.963 -3.3833,13.155 -1.6418,0.19523 -5.2619,-11.627 -6.8865,-11.934 -1.6016,-0.30267 -9.0469,9.4497 -10.47,8.6541 -1.443,-0.80711 2.5772,-12.499 1.4433,-13.703 -1.1178,-1.1863 -12.874,2.3274 -13.557,0.84746 -0.69303,-1.5012 9.4318,-8.5973 9.2218,-10.237 -0.20707,-1.6168 -11.783,-5.684 -11.466,-7.2828 0.32169,-1.6218 12.684,-1.4114 13.478,-2.8617 0.78279,-1.4297 -6.1916,-11.524 -4.9952,-12.631 1.2135,-1.123 11.091,6.3135 12.586,5.607 1.4736,-0.69655 1.7647,-12.963 3.3833,-13.155 1.6418,-0.19522 5.2619,11.627 6.8865,11.934 1.6016,0.30266 9.0469,-9.4497 10.47,-8.6541 1.443,0.80711 -2.5772,12.499 -1.4433,13.703 1.1178,1.1863 12.874,-2.3274 13.557,-0.84747 0.69302,1.5012 -9.4318,8.5973 -9.2218,10.237 0.20708,1.6168 11.783,5.684 11.466,7.2828 -0.32169,1.6218 -12.684,1.4114 -13.478,2.8617 -0.78279,1.4297 6.1916,11.524 4.9952,12.631 z"
         id="path4026" />
      <path
         style="fill:none;stroke:#000000;stroke-linecap:round;stroke-linejoin:round"
         inkscape:connector-curvature="0"
         d="m 266,535.02 c -4.5707,8.8037 10.374,5.3189 6.2039,0.35419"
         id="path4058" />
      <path
         inkscape:connector-curvature="0"
         d="m 211.8,444.06 a 1.2,2.3 0 1 1 -2.4,0 1.2,2.3 0 1 1 2.4,0 z"
         transform="translate(56.4,86)"
         id="path4235" />
      <path
         inkscape:connector-curvature="0"
         d="m 211.8,444.06 a 1.2,2.3 0 1 1 -2.4,0 1.2,2.3 0 1 1 2.4,0 z"
         transform="translate(59.8,86.7)"
         id="path4235-3" />
    </g>
  </g>
</svg>
